<svg xmlns="http://www.w3.org/2000/svg" xml:space="preserve" width="531" height="140" viewBox="0 0 663.75 175">
  <path fill="#21b9da" d="m196.85 108.265 22.48 28.08 20.57-17.2-22.48-28.08z"/>
  <path fill="#702b91" d="M51.47 61.515c-9.22-6.72-22.23-19.11-27.66-24.69L0 63.895c12.76 16.15 36 31.18 44.14 35.6-.12-13.95 3.11-27.3 7.33-37.98zm138.85 51.98s-27.47 25.53-55.68 25.53c-33.32 0-42.77-23.72-44.4-28.48-9.59-27.92 15.73-60.78 32.57-69.68 6.87-3.64 16.58-7.29 23.93-3.38.25.13 3.16 1.86-1.42 10.12-2.94 5.29-17.94 25.44-43.51 29.53-8.49 18.14-4.35 30.33-.91 36.18 18.37-1.34 35.75-8.36 51.76-20.92l.37-.3c14.1-11.73 36.66-35.46 29.34-62.61-4.09-15.15-16.68-25.9-33.69-28.76-21.6-3.62-53.78 5.66-78.89 42.85-15.21 20.26-39.22 90.36 28.07 123.96 60.5 26.44 114.59-25.81 114.59-25.81zm230.17-86.61.12-.33h-14.57l-.07.14c-2.52 5.12-6.12 10.62-10.41 15.92l-11.21-16.06h-15.23l17.9 25.64c-4.78 4.24-18.52 14.91-30.36 16.96-8.82 1.53-15.85-1.66-19.89-6.78-1.52-1.93-2.47-4.28-2.49-6.74-.05-6.29 4.46-12.03 5.31-13.09 2.96-3.25 6.09-4.84 8.85-5.36 1.82-.34 3.48-.24 4.81.21 1.7.57 5.22 1.82.1 6.72-4.85 3.82-8.37 4.02-11.97 4.38-5.01 8.02-1.08 11.99 1.28 12.47 8.66.94 16.24-3.42 20.32-7.2 3.09-2.86 7.86-8.85 5.18-16.9-1.8-5.4-6.55-9.74-12.7-11.62-3.44-1.05-15.49-3.56-26.08 8.23 0 0-11.48 12.36-6.75 28.04 5.19 17.18 20.73 21.26 35.36 20.02 14.69-1.25 27.8-10.92 36.61-18.48l11.39 16.99h15.23l-17.58-25.86c7.83-9.03 13.8-18.72 16.85-27.3zm116.49 39.3c-2.73-2.16-4.39-5.32-4.59-8.8-.41-6.85 4.35-12.82 5.31-14.03 4.9-5.39 10.28-6.2 13.69-5.16 4.59 1.41 2.33 4.53.28 6.54-4.72 4.64-12.04 4.57-12.04 4.57-2.98 4.92-3.71 9.32-.31 12.36 6.76 1.12 15.17-1.04 21.79-7.08 7.19-6.65 6.33-13.44 5.18-16.9-1.8-5.4-6.55-9.74-12.7-11.62-3.44-1.25-16.13-2.8-26.08 8.23-9.18 10.9-10.66 25.58-3 36.04 12.95 17.76 34.91 10.49 42.86 5.12l-7.75-11.12c-4.81 3.55-15.58 7.43-22.64 1.85zm-46.92-35.77c-5.15 2.94-5.51 6.8-5.53 8.81l.01 40.55h13.81l-.01-38.77s7.12-4.95 19.18-3.64l.11-10.77c-1.77-.77-4.16-1.1-7.17-1.15-10.26-.18-18 3.5-20.4 4.97zm-41.19-5.2c-12.53-.83-22.24 7.27-22.24 7.27l-.01 68.74h13.74v-62.58c2.24-.79 4.56-1.28 6.72-1.28 10.87 0 15.35 8.68 15.35 16.89 0 10.15-8.96 15.7-17.3 13.9l-.02 13.17c28.2 1.8 31.52-21.37 31.55-28.17.3-15.29-10.08-27.28-27.79-27.94zm202.39 24.24-10.25-2.66c-3.96-1.05-6.36-1.93-6.33-5.25.03-3.34 3.3-5.26 8.96-5.26 5.08 0 11.5 1.62 16.6 4.17l3.51-11.51c-4.07-1.84-12.15-3.72-18.86-3.72-14.07 0-23.22 6.87-23.32 17.51-.08 8.06 4.04 13.09 12.59 15.39l9.32 2.45c3.84 1 7.29 2.13 7.26 5.04-.04 4.38-4.81 4.94-8.95 4.94-6.71 0-13.28-2.81-17.04-4.76l-2.48 11.25c3.05 1.52 10.24 4.47 20.02 4.47 13.28 0 21.26-6.35 21.36-16.97.08-8.2-3.74-12.85-12.39-15.09zm-55.21-13.17c5.08 0 11.5 1.62 16.6 4.17l3.51-11.51c-4.07-1.84-12.15-3.72-18.86-3.72-14.07 0-23.22 6.87-23.32 17.51-.08 8.06 4.04 13.09 12.59 15.39l9.32 2.45c3.84 1 7.29 2.13 7.26 5.04-.04 4.38-4.81 4.94-8.95 4.94-6.71 0-13.28-2.81-17.04-4.76l-2.48 11.25c3.05 1.52 10.24 4.47 20.02 4.47 13.28 0 21.26-6.35 21.36-16.97.08-8.18-3.74-12.83-12.38-15.07l-10.25-2.66c-3.96-1.05-6.36-1.93-6.33-5.25.03-3.37 3.29-5.28 8.95-5.28zm-314 20.65 11.73-.01 16.23 23.05h8.55v-1.27l-18.14-25.13 18.17-25.84v-1.24h-8.42l-15.97 23.35h-12.15v-23.35h-8.1v53.42h8.1zm-55.43-.39h28.56v23.37h8.1v-53.42h-8.1v22.96h-28.56v-22.96h-8.1v53.42h8.1z"/>
</svg>
